<?xml version="1.0" standalone="no"?>
<!DOCTYPE svg PUBLIC "-//W3C//DTD SVG 20010904//EN"
 "http://www.w3.org/TR/2001/REC-SVG-20010904/DTD/svg10.dtd">
<svg version="1.0" xmlns="http://www.w3.org/2000/svg"
 width="512.000000pt" height="512.000000pt" viewBox="0 0 512.000000 512.000000"
 preserveAspectRatio="xMidYMid meet">
<metadata>
Created by potrace 1.14, written by Peter Selinger 2001-2017
</metadata>
<g transform="translate(0.000000,512.000000) scale(0.100000,-0.100000)"
fill="#000000" stroke="none">
<path d="M2865 3740 c-4 -7 -305 -1866 -305 -1887 0 -2 69 -2 153 -1 l152 3
14 103 c8 56 18 102 23 102 4 0 8 -4 8 -9 0 -23 87 -116 140 -150 80 -52 164
-74 280 -75 169 0 287 44 400 151 171 161 247 372 237 658 -6 186 -38 278
-131 382 -94 104 -208 153 -358 153 -160 0 -272 -44 -375 -147 -35 -35 -63
-60 -63 -57 0 4 27 179 60 390 33 211 60 386 60 389 0 10 -289 5 -295 -5z
m631 -828 c119 -61 171 -182 161 -372 -10 -174 -55 -294 -143 -383 -71 -73
-121 -92 -239 -92 -90 0 -106 3 -157 28 -114 56 -168 161 -168 326 1 165 43
288 132 386 56 62 119 103 187 122 63 18 178 10 227 -15z"/>
<path d="M1483 3156 c-86 -21 -162 -65 -240 -139 -138 -131 -202 -309 -190
-532 7 -126 23 -192 68 -285 44 -90 152 -196 242 -239 244 -116 503 -61 659
139 l28 35 0 -117 c0 -188 -24 -264 -104 -335 -64 -57 -136 -78 -261 -77 -128
0 -192 20 -251 79 -25 25 -48 60 -55 84 l-12 41 -150 0 -150 0 7 -47 c16 -121
115 -252 235 -313 108 -54 196 -72 366 -73 176 -2 268 15 385 70 95 46 193
141 234 228 54 116 56 135 56 833 l0 642 -150 0 -150 0 0 -97 -1 -98 -21 30
c-60 83 -150 144 -253 171 -62 17 -222 17 -292 0z m303 -227 c110 -20 202 -98
246 -208 18 -47 22 -75 22 -181 0 -162 -20 -217 -108 -306 -77 -76 -135 -99
-252 -98 -102 1 -172 31 -238 105 -73 81 -90 139 -90 294 0 155 18 214 90 294
82 91 194 125 330 100z"/>
</g>
</svg>
