<svg width="340" height="300" viewBox="0 0 340 300" fill="none" xmlns="http://www.w3.org/2000/svg">
<g clip-path="url(#clip0)">
<path d="M1.95825 143.621H0V156.379H1.95825V143.621Z" fill="#6B6B6B"/>
<path d="M7.15942 130.171H5.20117V169.829H7.15942V130.171Z" fill="#6B6B6B"/>
<path d="M12.3586 117.078H10.4004V182.921H12.3586V117.078Z" fill="#6B6B6B"/>
<path d="M17.5598 118.846H15.6016V181.154H17.5598V118.846Z" fill="#6B6B6B"/>
<path d="M22.761 126.635H20.8027V173.365H22.761V126.635Z" fill="#6B6B6B"/>
<path d="M27.9622 94H26.0039V206H27.9622V94Z" fill="#6B6B6B"/>
<path d="M33.1614 105.42H31.2031V194.58H33.1614V105.42Z" fill="#6B6B6B"/>
<path d="M38.3625 114.689H36.4043V185.311H38.3625V114.689Z" fill="#6B6B6B"/>
<path d="M43.5637 126.635H41.6055V173.365H43.5637V126.635Z" fill="#6B6B6B"/>
<path d="M48.7649 133.802H46.8066V166.198H48.7649V133.802Z" fill="#6B6B6B"/>
<path d="M53.9641 139.655H52.0059V160.345H53.9641V139.655Z" fill="#6B6B6B"/>
<path d="M59.1653 136.191H57.207V163.809H59.1653V136.191Z" fill="#6B6B6B"/>
<path d="M64.3664 133.802H62.4082V166.198H64.3664V133.802Z" fill="#6B6B6B"/>
<path d="M69.5657 126.635H67.6074V173.365H69.5657V126.635Z" fill="#6B6B6B"/>
<path d="M74.7668 115.764H72.8086V184.235H74.7668V115.764Z" fill="#6B6B6B"/>
<path d="M79.968 114.689H78.0098V185.311H79.968V114.689Z" fill="#6B6B6B"/>
<path d="M85.1692 120.017H83.2109V179.983H85.1692V120.017Z" fill="#6B6B6B"/>
<path d="M90.3684 127.973H88.4102V172.027H90.3684V127.973Z" fill="#6B6B6B"/>
<path d="M95.5696 137.792H93.6113V162.208H95.5696V137.792Z" fill="#6B6B6B"/>
<path d="M100.771 145.222H98.8125V154.778H100.771V145.222Z" fill="#6B6B6B"/>
<path d="M105.972 146.823H104.014V153.178H105.972V146.823Z" fill="#6B6B6B"/>
<path d="M111.171 145.222H109.213V154.778H111.171V145.222Z" fill="#6B6B6B"/>
<path d="M116.372 142.833H114.414V157.167H116.372V142.833Z" fill="#6B6B6B"/>
<path d="M121.573 127.973H119.615V172.027H121.573V127.973Z" fill="#6B6B6B"/>
<path d="M126.773 121.331H124.814V178.669H126.773V121.331Z" fill="#6B6B6B"/>
<path d="M131.974 114.689H130.016V185.311H131.974V114.689Z" fill="#6B6B6B"/>
<path d="M137.175 121.331H135.217V178.669H137.175V121.331Z" fill="#6B6B6B"/>
<path d="M142.376 133.802H140.418V166.198H142.376V133.802Z" fill="#6B6B6B"/>
<path d="M147.575 139.655H145.617V160.345H147.575V139.655Z" fill="#6B6B6B"/>
<path d="M152.777 142.833H150.818V157.167H152.777V142.833Z" fill="#6B6B6B"/>
<path d="M157.978 144.553H156.02V155.447H157.978V144.553Z" fill="#6B6B6B"/>
<path d="M163.179 146.823H161.221V153.178H163.179V146.823Z" fill="#6B6B6B"/>
<path d="M168.378 148.949H166.42V151.051H168.378V148.949Z" fill="#6B6B6B"/>
<path d="M171.622 143.621H173.58V156.379H171.622V143.621Z" fill="#6B6B6B"/>
<path d="M176.821 130.171H178.779V169.829H176.821V130.171Z" fill="#6B6B6B"/>
<path d="M182.022 117.078H183.98V182.921H182.022V117.078Z" fill="#6B6B6B"/>
<path d="M187.223 118.846H189.182V181.154H187.223V118.846Z" fill="#6B6B6B"/>
<path d="M192.425 126.635H194.383V173.365H192.425V126.635Z" fill="#6B6B6B"/>
<path d="M197.624 94H199.582V206H197.624V94Z" fill="#6B6B6B"/>
<path d="M202.825 105.42H204.783V194.58H202.825V105.42Z" fill="#6B6B6B"/>
<path d="M208.026 114.689H209.984V185.311H208.026V114.689Z" fill="#6B6B6B"/>
<path d="M213.225 126.635H215.184V173.365H213.225V126.635Z" fill="#6B6B6B"/>
<path d="M218.427 133.802H220.385V166.198H218.427V133.802Z" fill="#6B6B6B"/>
<path d="M223.628 139.655H225.586V160.345H223.628V139.655Z" fill="#6B6B6B"/>
<path d="M228.829 136.191H230.787V163.809H228.829V136.191Z" fill="#6B6B6B"/>
<path d="M234.028 133.802H235.986V166.198H234.028V133.802Z" fill="#6B6B6B"/>
<path d="M239.229 126.635H241.188V173.365H239.229V126.635Z" fill="#6B6B6B"/>
<path d="M244.43 115.764H246.389V184.235H244.43V115.764Z" fill="#6B6B6B"/>
<path d="M249.632 114.689H251.59V185.311H249.632V114.689Z" fill="#6B6B6B"/>
<path d="M254.831 120.017H256.789V179.983H254.831V120.017Z" fill="#6B6B6B"/>
<path d="M260.032 127.973H261.99V172.027H260.032V127.973Z" fill="#6B6B6B"/>
<path d="M265.233 137.792H267.191V162.208H265.233V137.792Z" fill="#6B6B6B"/>
<path d="M270.432 145.222H272.391V154.778H270.432V145.222Z" fill="#6B6B6B"/>
<path d="M275.634 146.823H277.592V153.178H275.634V146.823Z" fill="#6B6B6B"/>
<path d="M280.835 145.222H282.793V154.778H280.835V145.222Z" fill="#6B6B6B"/>
<path d="M286.036 142.833H287.994V157.167H286.036V142.833Z" fill="#6B6B6B"/>
<path d="M291.235 127.973H293.193V172.027H291.235V127.973Z" fill="#6B6B6B"/>
<path d="M296.436 121.331H298.395V178.669H296.436V121.331Z" fill="#6B6B6B"/>
<path d="M301.637 114.689H303.596V185.311H301.637V114.689Z" fill="#6B6B6B"/>
<path d="M306.839 121.331H308.797V178.669H306.839V121.331Z" fill="#6B6B6B"/>
<path d="M312.038 133.802H313.996V166.198H312.038V133.802Z" fill="#6B6B6B"/>
<path d="M317.239 139.655H319.197V160.345H317.239V139.655Z" fill="#6B6B6B"/>
<path d="M322.44 142.833H324.398V157.167H322.44V142.833Z" fill="#6B6B6B"/>
<path d="M327.641 144.553H329.6V155.447H327.641V144.553Z" fill="#6B6B6B"/>
<path d="M332.841 146.823H334.799V153.178H332.841V146.823Z" fill="#6B6B6B"/>
<path d="M338.042 148.949H340V151.051H338.042V148.949Z" fill="#6B6B6B"/>
<circle cx="170" cy="150" r="36" fill="#F8F8F8"/>
</g>
<path d="M138 150C138 132.327 152.327 118 170 118C187.673 118 202 132.327 202 150C202 167.673 187.673 182 170 182C152.327 182 138 167.673 138 150Z" fill="#121212"/>
<path d="M179 150.5L166.25 157.861L166.25 143.139L179 150.5Z" fill="white"/>
<rect x="0.5" y="0.5" width="339" height="299" stroke="#6B6B6B"/>
<defs>
<clipPath id="clip0">
<rect width="340" height="112" fill="white" transform="translate(0 94)"/>
</clipPath>
</defs>
</svg>
