<svg width="24" height="24" viewBox="0 0 24 24" fill="none" xmlns="http://www.w3.org/2000/svg">
<path d="M16.071 3.0119H13.8C13.2322 2.98059 12.6642 3.07128 12.1343 3.27787C11.6045 3.48446 11.125 3.80214 10.7282 4.20956C10.3314 4.61697 10.0265 5.10465 9.83393 5.63978C9.64139 6.17491 9.56572 6.74507 9.612 7.3119V9.2889H7.363C7.26681 9.28916 7.17463 9.32749 7.10661 9.39551C7.03859 9.46353 7.00026 9.55571 7 9.6519V12.5179C7.00026 12.6141 7.03859 12.7063 7.10661 12.7743C7.17463 12.8423 7.26681 12.8806 7.363 12.8809H9.631V20.1189C9.63126 20.2151 9.66959 20.3073 9.73761 20.3753C9.80563 20.4433 9.89781 20.4816 9.994 20.4819H12.969C13.0652 20.4816 13.1574 20.4433 13.2254 20.3753C13.2934 20.3073 13.3317 20.2151 13.332 20.1189V12.8629H16C16.0962 12.8626 16.1884 12.8243 16.2564 12.7563C16.3244 12.6883 16.3627 12.5961 16.363 12.4999V9.6339C16.3607 9.53834 16.3217 9.44733 16.2542 9.37975C16.1866 9.31216 16.0956 9.27318 16 9.2709H13.313V7.6019C13.313 6.8019 13.513 6.3869 14.547 6.3869H16.071C16.1672 6.38663 16.2594 6.3483 16.3274 6.28029C16.3954 6.21227 16.4337 6.12009 16.434 6.0239V3.3749C16.4337 3.27871 16.3954 3.18653 16.3274 3.11851C16.2594 3.05049 16.1672 3.01216 16.071 3.0119Z" fill="#121212"/>
</svg>
