<svg xmlns="http://www.w3.org/2000/svg" width="24" height="24" viewBox="0 0 24 24">
    <defs>
        <style>.a{fill:#bec9e1;opacity:0;}.b{fill:#2a3345;}</style>
    </defs>
    <rect class="a" width="24" height="24"></rect>
    <g transform="translate(3 3)">
        <path class="b"
              d="M17.013,9.906a9.078,9.078,0,0,0-3.318-3.318A8.918,8.918,0,0,0,9.118,5.365,8.919,8.919,0,0,0,4.541,6.588,9.077,9.077,0,0,0,1.223,9.906,8.919,8.919,0,0,0,0,14.483a8.861,8.861,0,0,0,1.739,5.36,8.93,8.93,0,0,0,4.494,3.295.531.531,0,0,0,.475-.083.464.464,0,0,0,.154-.356q0-.036-.006-.641T6.85,21l-.273.047a3.484,3.484,0,0,1-.659.042,5.02,5.02,0,0,1-.825-.083,1.844,1.844,0,0,1-.8-.356,1.506,1.506,0,0,1-.522-.73l-.119-.273a2.967,2.967,0,0,0-.374-.605,1.433,1.433,0,0,0-.516-.451l-.083-.06a.872.872,0,0,1-.154-.143.651.651,0,0,1-.107-.166q-.036-.083.059-.137a.77.77,0,0,1,.344-.053l.237.035a1.733,1.733,0,0,1,.588.285,1.916,1.916,0,0,1,.576.617,2.093,2.093,0,0,0,.659.742,1.4,1.4,0,0,0,.778.255,3.376,3.376,0,0,0,.677-.059,2.361,2.361,0,0,0,.534-.178,1.924,1.924,0,0,1,.582-1.223,8.129,8.129,0,0,1-1.217-.214,4.845,4.845,0,0,1-1.116-.463,3.2,3.2,0,0,1-.956-.8,3.823,3.823,0,0,1-.623-1.247A5.928,5.928,0,0,1,3.3,14.008a3.463,3.463,0,0,1,.938-2.446A3.192,3.192,0,0,1,4.321,9.14a1.664,1.664,0,0,1,1.021.16,7.139,7.139,0,0,1,.991.457q.315.19.5.321a8.574,8.574,0,0,1,4.559,0l.451-.285a6.39,6.39,0,0,1,1.092-.522,1.556,1.556,0,0,1,.962-.13A3.161,3.161,0,0,1,14,11.562a3.463,3.463,0,0,1,.938,2.446,5.994,5.994,0,0,1-.243,1.787,3.674,3.674,0,0,1-.629,1.247,3.319,3.319,0,0,1-.962.79,4.854,4.854,0,0,1-1.116.463,8.121,8.121,0,0,1-1.217.214,2.115,2.115,0,0,1,.617,1.686v2.5a.473.473,0,0,0,.149.356.516.516,0,0,0,.469.083A8.929,8.929,0,0,0,16.5,19.843a8.863,8.863,0,0,0,1.739-5.36A8.926,8.926,0,0,0,17.013,9.906Z"
              transform="translate(0 -5.365)"></path>
    </g>
</svg>
