<svg width="24" height="24" viewBox="0 0 24 24" fill="none" xmlns="http://www.w3.org/2000/svg">
<path fill-rule="evenodd" clip-rule="evenodd" d="M20.64 12.2006C20.6404 11.5833 20.5855 10.9672 20.476 10.3596H12V13.8406H16.844C16.7433 14.3915 16.5318 14.9163 16.2224 15.3831C15.913 15.85 15.5121 16.2492 15.044 16.5566V18.8146H17.953C18.8393 17.962 19.5364 16.9325 19.9993 15.7931C20.4622 14.6538 20.6805 13.4298 20.64 12.2006Z" fill="#4285F4"/>
<path fill-rule="evenodd" clip-rule="evenodd" d="M12 21.0006C14.1909 21.0598 16.3215 20.2796 17.956 18.8196L15.047 16.5616C14.3512 17.008 13.5627 17.2897 12.7415 17.3851C11.9203 17.4805 11.0882 17.3872 10.3085 17.1122C9.52888 16.8372 8.82232 16.3878 8.24272 15.7983C7.66312 15.2088 7.22577 14.4948 6.96403 13.7106H3.95703V16.0426C4.70635 17.5333 5.85531 18.7864 7.27559 19.6619C8.69588 20.5374 10.3316 21.0009 12 21.0006Z" fill="#34A853"/>
<path fill-rule="evenodd" clip-rule="evenodd" d="M6.96441 13.7106C6.58807 12.6017 6.58807 11.3996 6.96441 10.2906V7.95862H3.95741C3.32785 9.21301 3 10.5971 3 12.0006C3 13.4041 3.32785 14.7882 3.95741 16.0426L6.96441 13.7106Z" fill="#FBBC05"/>
<path fill-rule="evenodd" clip-rule="evenodd" d="M12 6.58058C13.2795 6.55895 14.5158 7.04258 15.441 7.92658L18.022 5.34558C16.3931 3.81517 14.235 2.97478 12 3.00058C10.3316 3.00026 8.69588 3.46374 7.27559 4.33925C5.85531 5.21477 4.70635 6.46785 3.95703 7.95858L6.96403 10.2906C7.30994 9.22315 7.98188 8.29107 8.88528 7.62554C9.78868 6.96001 10.878 6.59454 12 6.58058Z" fill="#EA4335"/>
</svg>
