<svg width="24" height="24" viewBox="0 0 24 24" fill="none" xmlns="http://www.w3.org/2000/svg">
<path fill-rule="evenodd" clip-rule="evenodd" d="M4.422 17.223C4.6347 17.7545 4.9531 18.2373 5.35791 18.6421C5.76272 19.0469 6.24554 19.3653 6.77704 19.578C7.39324 19.8166 8.04825 19.9394 8.70905 19.94C8.85944 19.9453 8.99168 19.9507 9.11973 19.9558L9.11992 19.9559C9.71121 19.9797 10.2131 20 12 20C14.174 20 14.445 20 15.291 19.94C15.9507 19.9276 16.6036 19.8052 17.223 19.578C17.7545 19.3653 18.2373 19.0469 18.6421 18.6421C19.0469 18.2373 19.3653 17.7545 19.578 17.223C19.8167 16.6068 19.9394 15.9518 19.94 15.291C19.9453 15.1406 19.9507 15.0084 19.9558 14.8804L19.9559 14.8802C19.9797 14.2888 20 13.7869 20 12V11.9998C20 9.82598 20 9.55497 19.94 8.709C19.9276 8.04935 19.8052 7.3964 19.578 6.777C19.3653 6.2455 19.0469 5.76272 18.6421 5.35791C18.2373 4.95311 17.7545 4.6347 17.223 4.422C16.6068 4.18334 15.9518 4.06061 15.291 4.06C15.1406 4.05466 15.0083 4.04932 14.8802 4.04414L14.8802 4.04414C14.2888 4.02027 13.7869 4 12 4C9.826 4 9.55505 4 8.70905 4.06C8.0494 4.07246 7.39645 4.19481 6.77704 4.422C6.24554 4.6347 5.76272 4.95311 5.35791 5.35791C4.9531 5.76272 4.6347 6.2455 4.422 6.777C4.18338 7.39321 4.06065 8.0482 4.06 8.709C4.05466 8.85945 4.04931 8.99173 4.04414 9.11982L4.04414 9.11983C4.02027 9.71116 4 10.2131 4 12V12.0003C4 14.174 4 14.445 4.06 15.291C4.04245 15.9534 4.16584 16.6119 4.422 17.223ZM5.479 8.74C5.48949 8.23558 5.58137 7.73615 5.75104 7.261C5.89311 6.91545 6.09635 6.59837 6.35101 6.325C6.61417 6.05747 6.93407 5.85242 7.28705 5.725C7.75801 5.54022 8.26016 5.44787 8.76605 5.453C8.92347 5.44741 9.05996 5.44182 9.19172 5.43643L9.19174 5.43643C9.7672 5.41286 10.2523 5.393 11.996 5.393C14.139 5.393 14.381 5.393 15.226 5.453C15.7304 5.46351 16.2299 5.55535 16.705 5.725C17.0506 5.86706 17.3677 6.07032 17.6411 6.325C17.9086 6.58814 18.1136 6.90801 18.241 7.261C18.4258 7.73196 18.5181 8.23411 18.513 8.74C18.5186 8.89742 18.5242 9.03391 18.5296 9.16566C18.5531 9.74114 18.573 10.2262 18.573 11.97V11.9703C18.573 14.113 18.573 14.355 18.513 15.2C18.5025 15.7044 18.4107 16.2039 18.241 16.679C18.0991 17.0246 17.8958 17.3417 17.6411 17.615C17.386 17.8923 17.0635 18.099 16.705 18.215C16.2341 18.3998 15.7319 18.4922 15.226 18.487C15.0687 18.4926 14.9323 18.4982 14.8006 18.5036L14.8003 18.5036C14.2249 18.5271 13.7398 18.547 11.996 18.547H11.9959C9.85303 18.547 9.61104 18.547 8.76605 18.487C8.26163 18.4765 7.7622 18.3846 7.28705 18.215C6.94149 18.0729 6.62437 17.8697 6.35101 17.615C6.07369 17.3599 5.86703 17.0375 5.75104 16.679C5.56626 16.208 5.47387 15.7059 5.479 15.2C5.47342 15.0426 5.46783 14.9061 5.46243 14.7744L5.46243 14.7743C5.43887 14.1989 5.41901 13.7138 5.41901 11.97C5.41819 10.2379 5.43821 9.7429 5.46198 9.15527L5.46198 9.15527C5.46721 9.02604 5.47262 8.89233 5.47803 8.74H5.479ZM11.9985 16.1051C12.8106 16.1051 13.6045 15.8643 14.2797 15.4131C14.955 14.9619 15.4812 14.3206 15.792 13.5704C16.1028 12.8201 16.1841 11.9945 16.0256 11.198C15.8672 10.4015 15.4762 9.66992 14.9019 9.09569C14.3277 8.52145 13.5961 8.13039 12.7996 7.97196C12.0031 7.81353 11.1775 7.89484 10.4272 8.20562C9.67697 8.51639 9.03571 9.04267 8.58453 9.7179C8.13336 10.3931 7.89258 11.187 7.89258 11.9991C7.89364 13.0877 8.32652 14.1315 9.09631 14.9013C9.86611 15.6711 10.9099 16.104 11.9985 16.1051ZM11.9985 9.31307C12.53 9.31307 13.0495 9.47066 13.4914 9.76591C13.9333 10.0612 14.2776 10.4808 14.481 10.9718C14.6844 11.4628 14.7376 12.003 14.6339 12.5243C14.5302 13.0455 14.2743 13.5243 13.8986 13.9001C13.5228 14.2758 13.044 14.5318 12.5228 14.6354C12.0015 14.7391 11.4613 14.6859 10.9703 14.4825C10.4793 14.2792 10.0597 13.9348 9.7644 13.4929C9.46915 13.051 9.31152 12.5315 9.31152 12.0001C9.31311 11.2879 9.59671 10.6054 10.1003 10.1018C10.6038 9.59826 11.2864 9.31465 11.9985 9.31307ZM16.8231 8.51627C16.6642 8.62242 16.4774 8.67907 16.2864 8.67907C16.1591 8.68068 16.0327 8.6568 15.9148 8.60882C15.7969 8.56085 15.6898 8.48975 15.5997 8.39973C15.5097 8.3097 15.4386 8.20257 15.3906 8.08464C15.3427 7.96671 15.3188 7.84037 15.3204 7.71307C15.3204 7.52201 15.377 7.33525 15.4832 7.17639C15.5893 7.01753 15.7402 6.89372 15.9167 6.8206C16.0932 6.74749 16.2875 6.72836 16.4749 6.76563C16.6623 6.80291 16.8343 6.89491 16.9694 7.03001C17.1045 7.1651 17.1966 7.33723 17.2338 7.52461C17.2711 7.712 17.252 7.90623 17.1788 8.08274C17.1057 8.25926 16.9819 8.41012 16.8231 8.51627Z" fill="#121212"/>
</svg>
