<svg width="14" height="12" viewBox="0 0 14 12" fill="none" xmlns="http://www.w3.org/2000/svg">
<path d="M7.43559 2.3544L7.00001 3.12729L6.56442 2.35442C6.35354 1.98027 6.00277 1.48062 5.48864 1.09455L5.78414 0.701011L5.48863 1.09455C4.96032 0.697843 4.36893 0.5 3.71875 0.5C1.89895 0.5 0.5 1.93508 0.5 3.9163C0.5 4.96377 0.9259 5.86833 1.75496 6.83964C2.59662 7.82571 3.81105 8.83268 5.33241 10.0915L5.01367 10.4767L5.33242 10.0915C5.55344 10.2743 6.04072 10.6482 6.48224 10.9833C6.67519 11.1297 6.85701 11.267 7 11.3746C7.14296 11.267 7.32473 11.1298 7.51763 10.9834C7.95907 10.6484 8.44626 10.2746 8.66725 10.0917L8.66726 10.0917C10.1888 8.83281 11.4033 7.82578 12.245 6.83967C13.0741 5.86833 13.5 4.96377 13.5 3.9163C13.5 1.93508 12.1011 0.5 10.2812 0.5C9.63107 0.5 9.03968 0.697843 8.51137 1.09455L8.21337 0.697704L8.51136 1.09455C7.99722 1.48062 7.64645 1.98025 7.43559 2.3544Z" stroke="#121212"/>
</svg>
