<svg width="16" height="16" viewBox="0 0 16 16" fill="none" xmlns="http://www.w3.org/2000/svg">
<path d="M4.71875 2C5.47844 2 6.17494 2.23373 6.78886 2.69473C7.37744 3.13668 7.7693 3.69959 8 4.10892C8.2307 3.69957 8.62256 3.13668 9.21114 2.69473C9.82506 2.23373 10.5216 2 11.2812 2C13.4013 2 15 3.68364 15 5.9163C15 8.32835 13.0055 9.97865 9.986 12.477C9.52439 12.8589 8 14 8 14C8 14 6.47535 12.8587 6.01367 12.4767C2.99454 9.97865 1 8.32835 1 5.9163C1 3.68364 2.59873 2 4.71875 2Z" fill="#121212"/>
</svg>
