<svg width="120" height="36" viewBox="0 0 120 36" fill="none" xmlns="http://www.w3.org/2000/svg">
<g clip-path="url(#clip0)">
<path d="M5.78556 29.416C3.99156 29.416 2.61156 29.0557 1.64556 28.335C0.694896 27.6144 0.142896 26.6407 -0.0104375 25.414H2.79556C3.05623 26.6714 4.04523 27.3 5.76256 27.3C8.00123 27.3 9.12056 26.219 9.12056 24.057V22.286C8.7679 22.8994 8.23123 23.4284 7.51056 23.873C6.80523 24.3024 6.0309 24.517 5.18756 24.517C3.65423 24.517 2.38156 23.9957 1.36956 22.953C0.357563 21.895 -0.148438 20.5074 -0.148438 18.79V18.629C-0.148438 16.927 0.357563 15.5164 1.36956 14.397C2.3969 13.2777 3.69256 12.718 5.25656 12.718C7.00456 12.718 8.29256 13.4157 9.12056 14.811V12.971H11.9036V24.103C11.8882 25.851 11.3439 27.1697 10.2706 28.059C9.19723 28.9637 7.70223 29.416 5.78556 29.416ZM5.87756 22.378C6.8589 22.378 7.65623 22.0484 8.26956 21.389C8.89823 20.7297 9.21256 19.8327 9.21256 18.698V18.537C9.21256 17.387 8.92123 16.4977 8.33856 15.869C7.77123 15.225 6.98156 14.903 5.96956 14.903C4.94223 14.903 4.13723 15.2404 3.55456 15.915C2.98723 16.5744 2.70356 17.4637 2.70356 18.583V18.767C2.70356 19.8557 3.00256 20.7297 3.60056 21.389C4.19856 22.0484 4.95756 22.378 5.87756 22.378Z" fill="#121212"/>
<path d="M14.8011 12.971H17.5841V15.225C18.3814 13.615 19.6848 12.8024 21.4941 12.787V15.386C20.2061 15.386 19.2324 15.6467 18.5731 16.168C17.9138 16.674 17.5841 17.5327 17.5841 18.744V25H14.8011V12.971Z" fill="#121212"/>
<path d="M26.4589 25.23C25.2783 25.23 24.3123 24.9387 23.5609 24.356C22.8096 23.758 22.4339 22.861 22.4339 21.665C22.4339 20.3464 22.9936 19.3804 24.1129 18.767C25.2476 18.1537 26.7426 17.847 28.5979 17.847H30.0929V17.226C30.0929 16.3827 29.9319 15.7694 29.6099 15.386C29.2879 15.0027 28.7206 14.811 27.9079 14.811C26.5433 14.811 25.7766 15.4397 25.6079 16.697H22.9169C23.0396 15.363 23.5686 14.3664 24.5039 13.707C25.4393 13.0477 26.6276 12.718 28.0689 12.718C31.2736 12.718 32.8759 14.1824 32.8759 17.111V25H30.1389V23.528C29.2496 24.6627 28.0229 25.23 26.4589 25.23ZM27.1259 23.229C28.0153 23.229 28.7283 23.0144 29.2649 22.585C29.8169 22.1557 30.0929 21.5577 30.0929 20.791V19.595H28.6669C26.3516 19.595 25.1939 20.2467 25.1939 21.55C25.1939 22.6694 25.8379 23.229 27.1259 23.229Z" fill="#121212"/>
<path d="M35.6556 12.971H38.4386V14.88C38.7453 14.2514 39.2283 13.7377 39.8876 13.339C40.5623 12.925 41.3749 12.718 42.3256 12.718C43.5983 12.718 44.6026 13.109 45.3386 13.891C46.0746 14.6577 46.4426 15.8384 46.4426 17.433V25H43.6596V17.686C43.6596 16.766 43.4679 16.099 43.0846 15.685C42.7013 15.2557 42.0956 15.041 41.2676 15.041C40.4396 15.041 39.7573 15.294 39.2206 15.8C38.6993 16.2907 38.4386 16.996 38.4386 17.916V25H35.6556V12.971Z" fill="#121212"/>
<path d="M53.7466 25.23C52.1826 25.23 50.9099 24.701 49.9286 23.643C48.9473 22.585 48.4566 21.0977 48.4566 19.181V18.997C48.4566 17.0957 48.9549 15.5777 49.9516 14.443C50.9636 13.293 52.2669 12.718 53.8616 12.718C55.6403 12.718 56.9206 13.4157 57.7026 14.811V7.40503H60.4856V25H57.7026V22.976C57.3499 23.6047 56.8133 24.1414 56.0926 24.586C55.3873 25.0154 54.6053 25.23 53.7466 25.23ZM54.4366 23.022C55.4486 23.022 56.2613 22.6847 56.8746 22.01C57.4879 21.3354 57.7946 20.3464 57.7946 19.043V18.859C57.7946 17.5557 57.5109 16.5744 56.9436 15.915C56.3763 15.2404 55.5789 14.903 54.5516 14.903C53.5243 14.903 52.7269 15.2557 52.1596 15.961C51.5923 16.651 51.3086 17.64 51.3086 18.928V19.112C51.3086 20.3847 51.5923 21.3584 52.1596 22.033C52.7269 22.6924 53.4859 23.022 54.4366 23.022Z" fill="#121212"/>
<path d="M69.5931 25.23C68.5505 25.23 67.6841 25.0077 66.9941 24.563C66.3195 24.1184 65.8288 23.5587 65.5221 22.884L65.2001 25H62.3941L65.2001 7.40503H67.9601L66.7871 14.903C67.2011 14.2437 67.7608 13.7147 68.4661 13.316C69.1868 12.9174 69.9918 12.718 70.8811 12.718C72.2458 12.718 73.3575 13.1934 74.2161 14.144C75.0748 15.0794 75.5041 16.352 75.5041 17.962C75.5041 20.078 74.9598 21.8184 73.8711 23.183C72.7825 24.5477 71.3565 25.23 69.5931 25.23ZM69.0641 23.068C70.1528 23.068 71.0115 22.6157 71.6401 21.711C72.2841 20.791 72.6061 19.6104 72.6061 18.169C72.6061 17.1264 72.3685 16.3214 71.8931 15.754C71.4178 15.1714 70.7585 14.88 69.9151 14.88C68.7805 14.88 67.8375 15.3324 67.0861 16.237C66.3501 17.1417 65.9821 18.3377 65.9821 19.825C65.9821 20.837 66.2505 21.6344 66.7871 22.217C67.3391 22.7844 68.0981 23.068 69.0641 23.068Z" fill="#121212"/>
<path d="M80.6787 25.23C79.498 25.23 78.532 24.9387 77.7807 24.356C77.0293 23.758 76.6537 22.861 76.6537 21.665C76.6537 20.3464 77.2133 19.3804 78.3327 18.767C79.4673 18.1537 80.9623 17.847 82.8177 17.847H84.3127V17.226C84.3127 16.3827 84.1517 15.7694 83.8297 15.386C83.5077 15.0027 82.9403 14.811 82.1277 14.811C80.763 14.811 79.9963 15.4397 79.8277 16.697H77.1367C77.2593 15.363 77.7883 14.3664 78.7237 13.707C79.659 13.0477 80.8473 12.718 82.2887 12.718C85.4933 12.718 87.0957 14.1824 87.0957 17.111V25H84.3587V23.528C83.4693 24.6627 82.2427 25.23 80.6787 25.23ZM81.3457 23.229C82.235 23.229 82.948 23.0144 83.4847 22.585C84.0367 22.1557 84.3127 21.5577 84.3127 20.791V19.595H82.8867C80.5713 19.595 79.4137 20.2467 79.4137 21.55C79.4137 22.6694 80.0577 23.229 81.3457 23.229Z" fill="#121212"/>
<path d="M88.6103 24.678L94.9813 15.179H89.2313V12.971H99.0983V13.362L92.7503 22.769H98.9143V25H88.6103V24.678Z" fill="#121212"/>
<path d="M104.071 25.23C102.891 25.23 101.925 24.9387 101.173 24.356C100.422 23.758 100.046 22.861 100.046 21.665C100.046 20.3464 100.606 19.3804 101.725 18.767C102.86 18.1537 104.355 17.847 106.21 17.847H107.705V17.226C107.705 16.3827 107.544 15.7694 107.222 15.386C106.9 15.0027 106.333 14.811 105.52 14.811C104.156 14.811 103.389 15.4397 103.22 16.697H100.529C100.652 15.363 101.181 14.3664 102.116 13.707C103.052 13.0477 104.24 12.718 105.681 12.718C108.886 12.718 110.488 14.1824 110.488 17.111V25H107.751V23.528C106.862 24.6627 105.635 25.23 104.071 25.23ZM104.738 23.229C105.628 23.229 106.341 23.0144 106.877 22.585C107.429 22.1557 107.705 21.5577 107.705 20.791V19.595H106.279C103.964 19.595 102.806 20.2467 102.806 21.55C102.806 22.6694 103.45 23.229 104.738 23.229Z" fill="#121212"/>
<path d="M113.268 12.971H116.051V15.225C116.848 13.615 118.152 12.8024 119.961 12.787V15.386C118.673 15.386 117.699 15.6467 117.04 16.168C116.381 16.674 116.051 17.5327 116.051 18.744V25H113.268V12.971Z" fill="#121212"/>
</g>
<defs>
<clipPath id="clip0">
<rect width="120" height="36" fill="white"/>
</clipPath>
</defs>
</svg>
