<svg width="24" height="24" viewBox="0 0 24 24" fill="none" xmlns="http://www.w3.org/2000/svg">
<path d="M22.2667 5.89415C21.513 6.21538 20.7099 6.42831 19.8727 6.53169C20.734 6.032 21.3914 5.24677 21.7005 4.30031C20.8974 4.76554 20.0107 5.09415 19.0658 5.27754C18.3033 4.48862 17.2165 4 16.0309 4C13.7306 4 11.8787 5.81415 11.8787 8.03815C11.8787 8.35815 11.9066 8.66585 11.975 8.95877C8.5208 8.79508 5.46433 7.18646 3.41107 4.736C3.0526 5.34031 2.84233 6.032 2.84233 6.77662C2.84233 8.17477 3.58333 9.41415 4.68787 10.1317C4.02033 10.1194 3.36547 9.93108 2.81067 9.63446C2.81067 9.64677 2.81067 9.66277 2.81067 9.67877C2.81067 11.6406 4.25087 13.2702 6.13947 13.6455C5.80127 13.7354 5.43267 13.7785 5.05013 13.7785C4.78413 13.7785 4.5156 13.7637 4.26353 13.7095C4.80187 15.3083 6.32947 16.4837 8.14587 16.5218C6.73227 17.5963 4.9374 18.2437 2.99433 18.2437C2.6536 18.2437 2.3268 18.2289 2 18.1883C3.84047 19.3415 6.02167 20 8.37387 20C16.0195 20 20.1995 13.8462 20.1995 8.512C20.1995 8.33354 20.1931 8.16123 20.1843 7.99015C21.0089 7.42154 21.7017 6.71138 22.2667 5.89415Z" fill="#03A9F4"/>
</svg>
