<svg width="340" height="112" viewBox="0 0 340 112" fill="none" xmlns="http://www.w3.org/2000/svg">
<g clip-path="url(#clip0)">
<path d="M1.95825 49.6211H0V62.3788H1.95825V49.6211Z" fill="#6B6B6B"/>
<path d="M7.15942 36.1705H5.20117V75.8292H7.15942V36.1705Z" fill="#6B6B6B"/>
<path d="M12.3586 23.0785H10.4004V88.9215H12.3586V23.0785Z" fill="#6B6B6B"/>
<path d="M17.5598 24.8464H15.6016V87.1536H17.5598V24.8464Z" fill="#6B6B6B"/>
<path d="M22.761 32.6348H20.8027V79.3651H22.761V32.6348Z" fill="#6B6B6B"/>
<path d="M27.9622 0H26.0039V112H27.9622V0Z" fill="#6B6B6B"/>
<path d="M33.1614 11.4198H31.2031V100.58H33.1614V11.4198Z" fill="#6B6B6B"/>
<path d="M38.3625 20.6893H36.4043V91.3105H38.3625V20.6893Z" fill="#6B6B6B"/>
<path d="M43.5637 32.6348H41.6055V79.3651H43.5637V32.6348Z" fill="#6B6B6B"/>
<path d="M48.7649 39.802H46.8066V72.1979H48.7649V39.802Z" fill="#6B6B6B"/>
<path d="M53.9641 45.6554H52.0059V66.3448H53.9641V45.6554Z" fill="#6B6B6B"/>
<path d="M59.1653 42.1912H57.207V69.8089H59.1653V42.1912Z" fill="#6B6B6B"/>
<path d="M64.3664 39.802H62.4082V72.1979H64.3664V39.802Z" fill="#6B6B6B"/>
<path d="M69.5657 32.6348H67.6074V79.3651H69.5657V32.6348Z" fill="#6B6B6B"/>
<path d="M74.7668 21.7644H72.8086V90.2354H74.7668V21.7644Z" fill="#6B6B6B"/>
<path d="M79.968 20.6893H78.0098V91.3105H79.968V20.6893Z" fill="#6B6B6B"/>
<path d="M85.1692 26.0172H83.2109V85.9831H85.1692V26.0172Z" fill="#6B6B6B"/>
<path d="M90.3684 33.9727H88.4102V78.0273H90.3684V33.9727Z" fill="#6B6B6B"/>
<path d="M95.5696 43.7919H93.6113V68.2082H95.5696V43.7919Z" fill="#6B6B6B"/>
<path d="M100.771 51.2218H98.8125V60.7781H100.771V51.2218Z" fill="#6B6B6B"/>
<path d="M105.972 52.8226H104.014V59.1776H105.972V52.8226Z" fill="#6B6B6B"/>
<path d="M111.171 51.2218H109.213V60.7781H111.171V51.2218Z" fill="#6B6B6B"/>
<path d="M116.372 48.8328H114.414V63.1672H116.372V48.8328Z" fill="#6B6B6B"/>
<path d="M121.573 33.9727H119.615V78.0273H121.573V33.9727Z" fill="#6B6B6B"/>
<path d="M126.773 27.3311H124.814V84.6689H126.773V27.3311Z" fill="#6B6B6B"/>
<path d="M131.974 20.6893H130.016V91.3105H131.974V20.6893Z" fill="#6B6B6B"/>
<path d="M137.175 27.3311H135.217V84.6689H137.175V27.3311Z" fill="#6B6B6B"/>
<path d="M142.376 39.802H140.418V72.1979H142.376V39.802Z" fill="#6B6B6B"/>
<path d="M147.575 45.6554H145.617V66.3448H147.575V45.6554Z" fill="#6B6B6B"/>
<path d="M152.777 48.8328H150.818V63.1672H152.777V48.8328Z" fill="#6B6B6B"/>
<path d="M157.978 50.553H156.02V61.4472H157.978V50.553Z" fill="#6B6B6B"/>
<path d="M163.179 52.8226H161.221V59.1776H163.179V52.8226Z" fill="#6B6B6B"/>
<path d="M168.378 54.9489H166.42V57.0513H168.378V54.9489Z" fill="#6B6B6B"/>
<path d="M171.622 49.6211H173.58V62.3788H171.622V49.6211Z" fill="#6B6B6B"/>
<path d="M176.821 36.1705H178.779V75.8292H176.821V36.1705Z" fill="#6B6B6B"/>
<path d="M182.022 23.0785H183.98V88.9215H182.022V23.0785Z" fill="#6B6B6B"/>
<path d="M187.223 24.8464H189.182V87.1536H187.223V24.8464Z" fill="#6B6B6B"/>
<path d="M192.425 32.6348H194.383V79.3651H192.425V32.6348Z" fill="#6B6B6B"/>
<path d="M197.624 0H199.582V112H197.624V0Z" fill="#6B6B6B"/>
<path d="M202.825 11.4198H204.783V100.58H202.825V11.4198Z" fill="#6B6B6B"/>
<path d="M208.026 20.6893H209.984V91.3105H208.026V20.6893Z" fill="#6B6B6B"/>
<path d="M213.225 32.6348H215.184V79.3651H213.225V32.6348Z" fill="#6B6B6B"/>
<path d="M218.427 39.802H220.385V72.1979H218.427V39.802Z" fill="#6B6B6B"/>
<path d="M223.628 45.6554H225.586V66.3448H223.628V45.6554Z" fill="#6B6B6B"/>
<path d="M228.829 42.1912H230.787V69.8089H228.829V42.1912Z" fill="#6B6B6B"/>
<path d="M234.028 39.802H235.986V72.1979H234.028V39.802Z" fill="#6B6B6B"/>
<path d="M239.229 32.6348H241.188V79.3651H239.229V32.6348Z" fill="#6B6B6B"/>
<path d="M244.43 21.7644H246.389V90.2354H244.43V21.7644Z" fill="#6B6B6B"/>
<path d="M249.632 20.6893H251.59V91.3105H249.632V20.6893Z" fill="#6B6B6B"/>
<path d="M254.831 26.0172H256.789V85.9831H254.831V26.0172Z" fill="#6B6B6B"/>
<path d="M260.032 33.9727H261.99V78.0273H260.032V33.9727Z" fill="#6B6B6B"/>
<path d="M265.233 43.7919H267.191V68.2082H265.233V43.7919Z" fill="#6B6B6B"/>
<path d="M270.432 51.2218H272.391V60.7781H270.432V51.2218Z" fill="#6B6B6B"/>
<path d="M275.634 52.8226H277.592V59.1776H275.634V52.8226Z" fill="#6B6B6B"/>
<path d="M280.835 51.2218H282.793V60.7781H280.835V51.2218Z" fill="#6B6B6B"/>
<path d="M286.036 48.8328H287.994V63.1672H286.036V48.8328Z" fill="#6B6B6B"/>
<path d="M291.235 33.9727H293.193V78.0273H291.235V33.9727Z" fill="#6B6B6B"/>
<path d="M296.436 27.3311H298.395V84.6689H296.436V27.3311Z" fill="#6B6B6B"/>
<path d="M301.637 20.6893H303.596V91.3105H301.637V20.6893Z" fill="#6B6B6B"/>
<path d="M306.839 27.3311H308.797V84.6689H306.839V27.3311Z" fill="#6B6B6B"/>
<path d="M312.038 39.802H313.996V72.1979H312.038V39.802Z" fill="#6B6B6B"/>
<path d="M317.239 45.6554H319.197V66.3448H317.239V45.6554Z" fill="#6B6B6B"/>
<path d="M322.44 48.8328H324.398V63.1672H322.44V48.8328Z" fill="#6B6B6B"/>
<path d="M327.641 50.553H329.6V61.4472H327.641V50.553Z" fill="#6B6B6B"/>
<path d="M332.841 52.8226H334.799V59.1776H332.841V52.8226Z" fill="#6B6B6B"/>
<path d="M338.042 54.9489H340V57.0513H338.042V54.9489Z" fill="#6B6B6B"/>
<circle cx="170" cy="56" r="36" fill="#F8F8F8"/>
</g>
<defs>
<clipPath id="clip0">
<rect width="340" height="112" fill="white"/>
</clipPath>
</defs>
</svg>
